<svg width="24" height="26" viewBox="0 0 24 26" fill="none" xmlns="http://www.w3.org/2000/svg">
<path d="M8.12769 6.70312L14.9815 6.70312L19.9999 17.1526L3.17822 17.1526L8.12769 6.70312Z" fill="#F9B6B0"/>
<mask id="mask0_26412_15759" style="mask-type:alpha" maskUnits="userSpaceOnUse" x="9" y="9" width="5" height="6">
<ellipse rx="2.30168" ry="2.24806" transform="matrix(0.956826 -0.290667 0.294085 0.955781 11.4909 12.0285)" fill="white"/>
</mask>
<g mask="url(#mask0_26412_15759)">
<ellipse rx="2.30168" ry="2.24806" transform="matrix(0.956826 -0.290667 0.294085 0.955781 11.4909 12.0285)" fill="white"/>
<ellipse rx="3.7303" ry="3.6434" transform="matrix(0.956826 -0.290667 0.294085 0.955781 14.5309 11.1031)" fill="#1048DB"/>
</g>
<mask id="mask1_26412_15759" style="mask-type:alpha" maskUnits="userSpaceOnUse" x="13" y="9" width="6" height="6">
<ellipse rx="2.30167" ry="2.24806" transform="matrix(0.956826 -0.290667 0.294085 0.955781 16.1632 11.8956)" fill="white"/>
</mask>
<g mask="url(#mask1_26412_15759)">
<ellipse rx="2.30167" ry="2.24806" transform="matrix(0.956826 -0.290667 0.294085 0.955781 16.1632 11.8956)" fill="white"/>
<ellipse rx="3.73293" ry="3.64084" transform="matrix(0.751954 -0.657806 0.658006 0.754238 19.2037 10.9702)" fill="#1048DB"/>
</g>
<rect x="12.3901" y="17.1523" width="2.80362" height="5.62662" fill="#EF8E85"/>
<path d="M12.3901 22.7793L14.7849 22.7793C16.1167 22.7793 17.1963 23.8589 17.1963 25.1907L12.3901 25.1907L12.3901 22.7793Z" fill="#EF8E85"/>
<rect x="8.65186" y="17.1523" width="2.80362" height="5.62662" fill="#F9B6B0"/>
<path d="M8.65186 22.7793L11.0466 22.7793C12.3784 22.7793 13.4581 23.8589 13.4581 25.1907L8.65186 25.1907L8.65186 22.7793Z" fill="#F9B6B0"/>
<path d="M8.11768 5.23047L16.7955 5.23047L16.7955 6.83807L8.11768 6.83807L8.11768 5.23047Z" fill="#D67ECD"/>
<path d="M8.11768 4.14623C8.11768 2.30291 9.61199 0.808594 11.4553 0.808593C13.2986 0.808593 14.793 2.30291 14.793 4.14623L14.793 5.22951L8.11768 5.22951L8.11768 4.14623Z" fill="#D67ECD"/>
</svg>
