<svg width="11" height="11" viewBox="0 0 11 11" fill="none" xmlns="http://www.w3.org/2000/svg">
<path d="M3.18667 1.66664V2.66664H1V9.99997H9V6.16664H10V9.99997C10 10.2652 9.89464 10.5195 9.70711 10.7071C9.51957 10.8946 9.26522 11 9 11H1C0.734784 11 0.48043 10.8946 0.292893 10.7071C0.105357 10.5195 0 10.2652 0 9.99997V2.66664C0 2.40142 0.105357 2.14707 0.292893 1.95953C0.48043 1.77199 0.734784 1.66664 1 1.66664H3.18667ZM8.43433 0.292969L10.7913 2.64964L8.31667 5.12464L7.60933 4.41763L8.69367 3.3333H7.5C5.59867 3.3333 4.05133 4.8493 4.00133 6.73864L4 6.8333V8.16664H3V6.8333C3 4.34797 5.01467 2.3333 7.5 2.3333H9.06033L7.72733 0.999969L8.43433 0.292969Z" fill="white"/>
</svg>
