<svg width="16" height="16" viewBox="0 0 16 16" fill="none" xmlns="http://www.w3.org/2000/svg">
<path d="M8.9975 12.1111C9.44598 12.1111 9.78824 11.9923 10.0243 11.7546C10.2604 11.5169 10.3784 11.1725 10.3784 10.7212V8.99358H9.40262V10.6218C9.40262 10.7895 9.36027 10.9171 9.27557 11.0044C9.19087 11.0917 9.0604 11.1354 8.88417 11.1354H4.82722C4.65262 11.1354 4.52295 11.0917 4.43823 11.0044C4.3535 10.9171 4.31114 10.7895 4.31114 10.6218V4.82575C4.31114 4.65798 4.3535 4.53043 4.43823 4.44311C4.52295 4.35578 4.65262 4.31212 4.82722 4.31212H8.88417C9.0604 4.31212 9.19087 4.35578 9.27557 4.44311C9.36027 4.53043 9.40262 4.65798 9.40262 4.82575V6.46417H10.3784V4.7263C10.3784 4.27505 10.2604 3.93018 10.0243 3.6917C9.78824 3.45322 9.44598 3.33398 8.9975 3.33398H4.71389C4.26704 3.33398 3.92518 3.45322 3.68831 3.6917C3.45144 3.93018 3.33301 4.27505 3.33301 4.7263V10.7212C3.33301 11.1725 3.45144 11.5169 3.68831 11.7546C3.92518 11.9923 4.26704 12.1111 4.71389 12.1111H8.9975ZM11.3757 9.52004C11.4759 9.52004 11.5661 9.47916 11.6463 9.39738L12.9268 8.06735C12.9831 8.00815 13.0227 7.95027 13.0455 7.89372C13.0682 7.83716 13.0796 7.7795 13.0796 7.72074C13.0796 7.66035 13.0682 7.60158 13.0455 7.54443C13.0227 7.48728 12.9831 7.43051 12.9268 7.37414L11.6463 6.04166C11.5661 5.96152 11.4759 5.92145 11.3757 5.92145C11.2661 5.92145 11.1767 5.9597 11.1075 6.0362C11.0382 6.1127 11.0036 6.20231 11.0036 6.30502C11.0036 6.42179 11.0463 6.51863 11.1316 6.59556L11.6652 7.09828L11.9723 7.31674L11.3822 7.27866H7.45389C7.33792 7.27866 7.23624 7.32144 7.14887 7.407C7.06151 7.49256 7.01782 7.59714 7.01782 7.72074C7.01782 7.84272 7.06151 7.94658 7.14887 8.03234C7.23624 8.1181 7.33792 8.16098 7.45389 8.16098H11.3822L11.9723 8.12475L11.6652 8.34321L11.1316 8.84355C11.0463 8.92043 11.0036 9.01727 11.0036 9.13409C11.0036 9.23517 11.0382 9.32476 11.1075 9.40287C11.1767 9.48098 11.2661 9.52004 11.3757 9.52004Z" fill="#8F9BB3"/>
</svg>
