<svg width="120" height="120" viewBox="0 0 120 120" fill="none" xmlns="http://www.w3.org/2000/svg">
<circle cx="60" cy="60" r="60" fill="#3366FF"/>
<path d="M84.1523 27C72.5039 27 56.877 34.9844 46.3906 48.7246H37.6953C31.4062 48.7246 27.8105 53.4141 25.3223 58.377L22 65.0215H29.834H37.6816L45.8301 73.1699L53.9785 81.3184V89.166V97L60.623 93.6777C65.5859 91.2031 70.2754 87.5938 70.2754 81.3047V72.6094C84.0156 62.123 92 46.4961 92 34.8477V27H84.1523ZM70.2754 43.2969C73.2695 43.2969 75.7031 45.7305 75.7031 48.7246C75.7031 51.7188 73.2695 54.1523 70.2754 54.1523C67.2812 54.1523 64.8477 51.7188 64.8477 48.7246C64.8477 45.7305 67.2812 43.2969 70.2754 43.2969ZM34.9746 75.877L32.2539 78.5977C28.3301 82.5215 26.8262 92.1738 26.8262 92.1738C26.8262 92.1738 36.0547 91.0938 40.4023 86.7461L43.123 84.0254L34.9746 75.877Z" fill="white"/>
</svg>
