<svg width="32" height="33" viewBox="0 0 32 33" fill="none" xmlns="http://www.w3.org/2000/svg">
<path opacity="0.4" fill-rule="evenodd" clip-rule="evenodd" d="M16 31.8846C24.4967 31.8846 31.3846 24.9967 31.3846 16.5C31.3846 8.00331 24.4967 1.11538 16 1.11538C7.50331 1.11538 0.615385 8.00331 0.615385 16.5C0.615385 24.9967 7.50331 31.8846 16 31.8846ZM16 32.5C24.8366 32.5 32 25.3366 32 16.5C32 7.66344 24.8366 0.5 16 0.5C7.16344 0.5 0 7.66344 0 16.5C0 25.3366 7.16344 32.5 16 32.5Z" fill="#C3C5CA"/>
<path fill-rule="evenodd" clip-rule="evenodd" d="M22.1552 24.8636C20.4327 26.1332 18.3039 26.8836 15.9999 26.8836C10.2647 26.8836 5.61531 22.2342 5.61531 16.4989C5.61531 14.1949 6.36564 12.0662 7.63529 10.3437L22.1552 24.8636ZM23.8512 23.2961L9.20281 8.64765C11.0243 7.06935 13.4006 6.11433 15.9999 6.11433C21.7352 6.11433 26.3845 10.7637 26.3845 16.4989C26.3845 19.0983 25.4295 21.4746 23.8512 23.2961ZM28.6922 16.4989C28.6922 23.5087 23.0097 29.1913 15.9999 29.1913C8.99016 29.1913 3.30762 23.5087 3.30762 16.4989C3.30762 9.48918 8.99016 3.80664 15.9999 3.80664C23.0097 3.80664 28.6922 9.48918 28.6922 16.4989Z" fill="#C3C5CA"/>
</svg>
