<svg width="120" height="120" viewBox="0 0 120 120" fill="none" xmlns="http://www.w3.org/2000/svg">
<path d="M63.0762 101.694C65.8301 101.694 67.8809 100.991 69.2285 99.585C70.5762 98.1787 71.25 95.9961 71.25 93.0371V62.2754C71.25 59.3164 70.5762 57.1338 69.2285 55.7275C68.3301 54.79 67.1191 54.165 65.5957 53.8525L64.8774 53.7364L64.8779 42.5C64.8779 39.1309 65.5225 36.2964 66.8115 33.9966C68.1006 31.6968 69.8145 29.9609 71.9531 28.7891C74.0918 27.6172 76.4209 27.0312 78.9404 27.0312C81.46 27.0312 83.7817 27.6172 85.9058 28.7891C88.0298 29.9609 89.7363 31.6968 91.0254 33.9966C92.3145 36.2964 92.959 39.1309 92.959 42.5V51.5088C92.959 52.8564 93.3105 53.8818 94.0137 54.585C94.7168 55.2881 95.5957 55.6396 96.6504 55.6396C97.6758 55.6396 98.54 55.3101 99.2432 54.6509C99.9463 53.9917 100.298 52.9443 100.298 51.5088V43.335C100.298 39.4092 99.7119 35.9814 98.54 33.0518C97.3682 30.1221 95.7642 27.6904 93.728 25.7568C91.6919 23.8232 89.3994 22.3804 86.8506 21.4282C84.3018 20.4761 81.665 20 78.9404 20C76.1865 20 73.5352 20.4761 70.9863 21.4282C68.4375 22.3804 66.1523 23.8232 64.1309 25.7568C62.1094 27.6904 60.5127 30.1221 59.3408 33.0518C58.1689 35.9814 57.583 39.4092 57.583 43.335L57.5824 53.6314L23.9209 53.7061C21.167 53.7061 18.9917 54.4019 17.395 55.7935C15.7983 57.1851 15 59.3457 15 62.2754V93.0371C15 95.9961 15.6812 98.1787 17.0435 99.585C18.4058 100.991 20.4492 101.694 23.1738 101.694H63.0762Z" fill="#00E096"/>
</svg>
