<svg width="18" height="17" viewBox="0 0 18 17" fill="none" xmlns="http://www.w3.org/2000/svg">
<path d="M15.8304 16.5659C16.2717 16.5659 16.6547 16.4678 16.9796 16.2717C17.3044 16.0756 17.5557 15.8121 17.7334 15.4811C17.9111 15.1502 18 14.7855 18 14.3871C18 14.2094 17.977 14.0301 17.9311 13.8493C17.8851 13.6685 17.8131 13.4923 17.715 13.3207L10.8754 1.11236C10.6731 0.744637 10.4035 0.467314 10.0664 0.280388C9.72932 0.0934627 9.37385 0 9 0C8.63841 0 8.28601 0.0934627 7.9428 0.280388C7.59959 0.467314 7.32686 0.744637 7.12462 1.11236L0.294178 13.3207C0.0980592 13.6762 0 14.0317 0 14.3871C0 14.7855 0.0888662 15.1502 0.266599 15.4811C0.444331 15.8121 0.695608 16.0756 1.02043 16.2717C1.34525 16.4678 1.73136 16.5659 2.17875 16.5659H15.8304ZM9.00919 10.6639C8.50664 10.6639 8.24923 10.4096 8.23698 9.90092L8.11747 5.37794C8.10521 5.13279 8.18182 4.92901 8.34729 4.7666C8.51277 4.60419 8.73034 4.52298 9 4.52298C9.26353 4.52298 9.47804 4.60419 9.64351 4.7666C9.80899 4.92901 9.89173 5.13585 9.89173 5.38713L9.76302 9.90092C9.75077 10.4096 9.49949 10.6639 9.00919 10.6639ZM9.00919 13.6333C8.72727 13.6333 8.48519 13.5398 8.28294 13.3529C8.08069 13.166 7.97957 12.9377 7.97957 12.668C7.97957 12.3922 8.08069 12.1609 8.28294 11.974C8.48519 11.787 8.72727 11.6936 9.00919 11.6936C9.29111 11.6936 9.5332 11.787 9.73544 11.974C9.93769 12.1609 10.0388 12.3922 10.0388 12.668C10.0388 12.9438 9.93616 13.1736 9.73085 13.3575C9.52554 13.5414 9.28498 13.6333 9.00919 13.6333Z" fill="#FFAA00"/>
</svg>

